<?xml version="1.0" standalone="no"?>
<!DOCTYPE svg PUBLIC "-//W3C//DTD SVG 20010904//EN"
 "http://www.w3.org/TR/2001/REC-SVG-20010904/DTD/svg10.dtd">
<svg version="1.0" xmlns="http://www.w3.org/2000/svg"
 width="192.000000pt" height="192.000000pt" viewBox="0 0 192.000000 192.000000"
 preserveAspectRatio="xMidYMid meet">
<metadata>
Created by potrace 1.11, written by Peter Selinger 2001-2013
</metadata>
<g transform="translate(0.000000,192.000000) scale(0.100000,-0.100000)"
fill="#000000" stroke="none">
<path d="M929 1531 l-61 -129 -98 -24 -97 -25 -289 129 c-337 150 -324 145
-324 122 0 -9 27 -104 60 -211 l60 -195 0 -272 0 -272 403 -197 c221 -109 408
-197 414 -197 13 0 627 251 677 277 l29 15 -7 252 -6 251 105 144 c58 80 102
148 98 152 -9 8 -879 309 -894 309 -5 0 -36 -58 -70 -129z m310 -302 c201 -78
372 -144 379 -148 7 -4 -123 -54 -294 -114 -169 -59 -309 -105 -312 -103 -2 3
-19 87 -38 187 -18 100 -34 182 -36 184 -2 1 -47 22 -100 45 -54 24 -98 46
-98 50 0 3 28 14 63 22 34 9 64 16 66 17 3 0 169 -62 370 -140z"/>
</g>
</svg>
