<svg id="Layer_1" data-name="Layer 1" xmlns="http://www.w3.org/2000/svg" viewBox="0 0 341.52 36.13"><defs><style>.cls-1,.cls-2{fill:#fff;}.cls-2,.cls-3{fill-rule:evenodd;}.cls-3,.cls-4{fill:#e2dba2;}</style></defs><title>fb_logo_text_only</title><path class="cls-1" d="M137,381.39c1.85,0.21,3.11.32,3.59,1.64,0.69,1.85.69,11.14,0.69,13.67,0,6,0,11-.58,14.1-0.21,1.16-.63,1.85-3.06,2.27l-0.05.84c2-.16,4.28-0.21,4.75-0.21h2.53c3.27,0,4.49.11,5.6,0.16v-1c-5.54-.69-5.54-1.11-5.54-6.7,0-3.33.05-6.28,0.11-8.71a44.56,44.56,0,0,1,4.59-.16c4,0,7.23.58,8,1.11,0.42,0.26.42,2.16,0.42,2.85h1.06c0.11-2.69.11-5,.11-5.39,0-1.74-.05-2.27-0.11-3.11a3.25,3.25,0,0,1-1,.11c0,2.64,0,3.27-7.29,3.27a53.62,53.62,0,0,1-5.86-.26v-4.06c0-1.21,0-6.65.21-9.45A29.62,29.62,0,0,1,151,382c9.08,0,9.19,1.58,9.45,5h1.06a52.34,52.34,0,0,1,.16-6.49c-2.59.21-7.34,0.37-11.72,0.37-0.74,0-2.9-.11-5-0.16s-4.12-.11-4.7-0.11l-3.33.05v0.79h0Z" transform="translate(-136.96 -379.36)"/><path class="cls-1" d="M188.85,406.31c-1.64,4.65-3.85,6.28-12,6.28a19.79,19.79,0,0,1-6.71-.79,66.17,66.17,0,0,1-.48-10.35l0.11-3.64a27.18,27.18,0,0,1,4.65-.26c8.45,0,9.4.21,9.56,4.75h0.9c0-4.43.05-6.86,0.05-9.66l-0.74-.05c-1,3.27-1.21,3.27-3.12,3.49-1.53.16-4.8,0.21-7.5,0.21-1.69,0-3.17,0-3.8-.05-0.05-.9-0.05-4.49-0.05-6.71a59.32,59.32,0,0,1,.48-7.18,57.08,57.08,0,0,1,7.92-.53c2.43,0,7.66.05,7.66,2.9,0,0.26-.21,1.64-0.21,2s0.48,0.37.63,0.37c0.79,0,1.21-4.75,1.32-6.65-2.8.11-6.6,0.21-8.39,0.21H162.61a2.79,2.79,0,0,0-.05.69c3.12,0.63,3.33.63,3.48,7.71l0.16,8.18c0.05,1.74-.21,10.72-0.58,13.3-0.32,2.16-.42,2.22-3.43,2.85l-0.05.9c3.33-.16,9-0.37,13.89-0.37,0.05,0,2.43.11,5,.11s5.44,0.05,6.44.16c1.11-2.32,1.53-3.85,2.16-7.81h-0.79Z" transform="translate(-136.96 -379.36)"/><path class="cls-2" d="M205.41,402.35c4.49,6.44,9.71,13.15,16.79,13.15,1.32,0,1.32-.21,1.32-0.48a0.46,0.46,0,0,0-.48-0.53c-5.23-.37-10.14-7.76-15-15.1l-1.16-1.74c5-1.85,7.18-5.28,7.18-8.55,0-4.33-4-8.82-11.46-8.82-1.48,0-8.08.63-9.4,0.63-1,0-2.11,0-3.48-.05-0.05.26-.05,0.42-0.11,0.84,3.54,0.48,3.75.53,3.7,10.72v11.4c-0.05,8.24-.63,8.76-2.69,9.34-1,.26-1.06.32-1.06,0.69a0.44,0.44,0,0,0,.53.47c0.11,0,.26-0.05.42-0.05a37.42,37.42,0,0,1,5.17-.37c0.42,0,1.58.11,2.69,0.21s2.11,0.26,2.16.26a0.49,0.49,0,0,0,.37-0.58c0-.21-0.11-0.32-0.58-0.42-2-.47-2.64-0.69-3-1.58-0.58-1.37-.63-6.07-0.63-7.81l0.05-6.18a39.68,39.68,0,0,0,5.65.32l3,4.22h0Zm-8.45-6c0-4.54,0-12.46.58-13.73,0.37-1,3.12-1.21,4.22-1.21,6,0,8.39,5.33,8.39,8.34,0,7-7.29,7-9,7a15.67,15.67,0,0,1-4.17-.42h0Z" transform="translate(-136.96 -379.36)"/><path class="cls-1" d="M250,397.49c-3.43.32-6.39,0.32-11.88,0.37L238,399a11.42,11.42,0,0,1,1.64-.11c4.54,0,4.7.63,4.7,6.44,0,4.59-.11,4.7-0.42,5.12-0.58.74-3.27,2.43-7.66,2.43-9.93,0-15.31-9.29-15.31-16.16,0-7.44,5.33-15.1,14.36-15.1,6.76,0,9.77,4,10.72,6.12,0.21,0.53.21,0.58,0.53,0.58a0.3,0.3,0,0,0,.32-0.37c0-1.85-.69-4.7-0.69-6.55,0-.63,0-1-0.37-1s-1.32,1.16-1.58,1.16a7.55,7.55,0,0,1-1.43-.47,24.25,24.25,0,0,0-6.28-.9c-10,0-19.64,6.12-19.64,17.16,0,7.71,5.28,16.89,18.53,16.89a50.35,50.35,0,0,0,9.87-1c0.53-.11,3-0.63,3.59-0.69l0.26-.58c-0.84-.69-1.16-1-1.16-5.44,0-5.49.05-6.23,0.26-6.86s0.69-.84,1.74-1.21v-1h0Z" transform="translate(-136.96 -379.36)"/><path class="cls-1" d="M249.7,381.76c2.9,0.32,3,.32,3.22,1.11,0.58,1.9.69,5.6,0.69,9.5,0,1.69-.11,9.45-0.11,11.25,0,8.13,6.71,10.77,13.09,10.77,2.8,0,10.72-.47,13.36-5.38,1.64-3.12,2.11-9.19,2.32-22.28,0.05-4.43.05-4.75,3.43-4.91v-1.06c-1.9-.05-5.54-0.05-7.44-0.05a25,25,0,0,0-2.59.16l0.11,0.9c3.54,0,4.54,0,4.54,9.24,0,4.33-.11,12.41-1.43,16.21-1.53,4.59-8.45,5.44-10.93,5.44-1.64,0-9-.32-10.3-6.44-0.48-2.27-.53-5.91-0.53-10.77,0-2.38,0-10.66.79-12.09,0.42-.84,1.06-1.42,4.43-1.85l-0.26-.84c-4.22.21-4.28,0.21-8.61,0.21-1.21,0-2.48,0-3.7-.05l-0.11,1h0Z" transform="translate(-136.96 -379.36)"/><path class="cls-1" d="M287.7,414c-0.05-.32-0.16-0.9.53-0.9a5,5,0,0,1,.84.16,29.21,29.21,0,0,0,7.55,1.06c7.71,0,11.46-4,11.46-8.76,0-6.39-5.81-8.61-9.93-10.19s-7.92-3-7.92-7.5c0-1,.26-6.44,7-6.44,2.69,0,8.39,1,8.82,6.7l0.79-.05c0.05-.53-0.32-2.9-0.32-3.38,0-.11.26-3,0.42-4.07a1.87,1.87,0,0,0-.53-0.11,0.4,0.4,0,0,0-.21.11,2.74,2.74,0,0,1-1.53.53,6.58,6.58,0,0,1-1.32-.21,22.94,22.94,0,0,0-5.33-.58c-7.44,0-11,4.22-11,9.08,0,5.17,4,7.34,9.29,9.29,4.59,1.74,8.34,3.17,8.34,8.29,0,5.86-5.54,5.86-6.6,5.86a18.92,18.92,0,0,1-8.61-2.27c-2-1.11-2.38-2.32-3.38-5.49a5,5,0,0,0-.84.21,30.56,30.56,0,0,1,1.43,8.61L287.7,414h0Z" transform="translate(-136.96 -379.36)"/><path class="cls-1" d="M341.16,381.49c4.7,0.53,4.65,4.12,4.54,10.67l-0.16,12.3c-0.11,7.55-.48,8.24-3.06,8.5-0.48.05-.69,0.05-0.69,0.58s0.16,0.63.69,0.63,1.69-.16,2.9-0.21,2.43-.11,2.85-0.11,1.48,0.05,2.53.11,2.11,0.11,2.48.11a2.93,2.93,0,0,0,.11-1c-5.7-1.11-6.18-1.11-6-10.66l0.32-15.79c0.21,0.11,6.28,5.91,7.18,6.6l9.66,9c2.27,2.11,9,8.39,10.72,12.14l1.06,0.05c-0.21-2.8-.26-7.81-0.26-10.77,0-4.44.11-16.63,0.84-20,0.32-1.43,1-2,3.17-2.32l-0.05-.9-3.27.05a22.1,22.1,0,0,1-2.48-.05c-1.27-.11-3-0.16-3.48-0.16a9.78,9.78,0,0,0-1.27.05l-0.26.74c4.49,0.74,5.28.79,5.28,10.88v5c0,3.27,0,6.55-.21,9.77l-15.21-14.41c-1.74-1.69-7.87-7.44-11.25-11.72l-2.22.05a33.67,33.67,0,0,1-4.49-.21v1.06h0Z" transform="translate(-136.96 -379.36)"/><path class="cls-1" d="M343.08,391.64c-2.84-9.06-13.66-14.32-22.38-10.64-10.41,4.4-13.51,13.84-10.52,22.51,4.14,9.85,13.76,12.56,21.71,10A17.2,17.2,0,0,0,343.08,391.64Zm-11,20.59c-6.72,2.17-15.33-2.58-18.34-12.56-2.12-7,.81-14.3,8.17-17.24,6.2-2.6,15.45,1.38,18.17,13.48C341.22,403.31,338.42,409.74,332.06,412.23Z" transform="translate(-136.96 -379.36)"/><path class="cls-3" d="M392,399.56h6.51c2.45,0,3.63,1.09,3.63,3.07,0,2.6-1.89,3.21-4.06,3.21H392v-6.28h0Zm-10.38,14.3h19.11c5.95,0,11.8-3.49,11.8-10.24,0-5-2.83-7.36-5.85-8.4,2.5-1.37,4.15-3.21,4.15-6.61s-1.89-8.45-10.76-8.45H381.6v33.7h0ZM392,388.19h5.47c2.12,0,3.54.61,3.54,2.31,0,2.17-1.37,2.78-3.54,2.78H392v-5.1h0Z" transform="translate(-136.96 -379.36)"/><path class="cls-3" d="M412.74,397c0,10.29,6.84,17.65,17.08,17.65s17.08-7.36,17.08-17.65-6.84-17.65-17.08-17.65-17.08,7.36-17.08,17.65h0Zm10.38,0c0-7.5,4.06-9.25,6.7-9.25s6.7,1.75,6.7,9.25-4.06,9.25-6.7,9.25-6.7-1.75-6.7-9.25h0Z" transform="translate(-136.96 -379.36)"/><polygon class="cls-4" points="305.42 34.5 317.31 34.5 323.25 24.45 329.01 34.5 341.52 34.5 329.48 16.66 340.29 0.8 328.78 0.8 323.77 9.96 318.68 0.8 306.5 0.8 317.59 16.56 305.42 34.5 305.42 34.5"/></svg>